
<svg xmlns="http://www.w3.org/2000/svg" style="display:none" aria-hidden="true">
  <symbol id="i-hexagon" viewBox="0 0 34 34"><polygon points="17,4 28,10.5 28,23.5 17,30 6,23.5 6,10.5" stroke-linejoin="round"></polygon></symbol>
  <symbol id="i-diamond" viewBox="0 0 34 34"><polygon points="17,5 29,17 17,29 5,17" stroke-linejoin="round"></polygon></symbol>
  <symbol id="i-kite" viewBox="0 0 34 34"><polygon points="17,4 30,17 17,22 4,17" stroke-linejoin="round"></polygon></symbol>
  <symbol id="i-page" viewBox="0 0 34 34"><polygon points="8,5 22,5 27,10 27,29 8,29" stroke-linejoin="round"></polygon><polyline points="22,5 22,10 27,10" stroke-linejoin="round"></polyline></symbol>
  <symbol id="i-block" viewBox="0 0 34 34"><rect x="7" y="7" width="20" height="20" rx="3"></rect></symbol>
  <symbol id="i-frame" viewBox="0 0 34 34"><rect x="5" y="8" width="24" height="18" rx="2"></rect><polyline points="9,22 15,16 20,21 25,17" stroke-linejoin="round"></polyline></symbol>
  <symbol id="i-chevron" viewBox="0 0 34 34"><polygon points="7,6 21,6 28,17 21,28 7,28 14,17" stroke-linejoin="round"></polygon></symbol>
  <symbol id="i-shield" viewBox="0 0 34 34"><path d="M17 4 L28 9 L26 22 L17 30 L8 22 L6 9 Z" stroke-linejoin="round"></path></symbol>
  <symbol id="i-orbit" viewBox="0 0 34 34"><ellipse cx="17" cy="17" rx="13" ry="6.5" transform="rotate(-28 17 17)"></ellipse><circle cx="17" cy="17" r="3.4"></circle></symbol>
  <symbol id="i-circle" viewBox="0 0 34 34"><circle cx="17" cy="17" r="11"></circle></symbol>
  <symbol id="i-dot" viewBox="0 0 34 34"><circle cx="17" cy="17" r="6"></circle></symbol>
  <symbol id="i-repo" viewBox="0 0 34 34"><path d="M12 6 H8 a2 2 0 0 0 -2 2 V26 a2 2 0 0 0 2 2 h4" stroke-linecap="round"></path><path d="M22 6 h4 a2 2 0 0 1 2 2 V26 a2 2 0 0 1 -2 2 h-4" stroke-linecap="round"></path><line x1="17" y1="11" x2="17" y2="23" stroke-linecap="round"></line></symbol>
  <symbol id="i-seal" viewBox="0 0 34 34"><circle cx="17" cy="15" r="9"></circle><polyline points="12,28 17,24 22,28" stroke-linejoin="round"></polyline></symbol>
  <symbol id="i-core" viewBox="0 0 34 34"><circle cx="17" cy="17" r="11"></circle><circle cx="17" cy="17" r="4"></circle></symbol>
  <symbol id="i-api" viewBox="0 0 34 34"><path d="M6 12 h9 a5 5 0 0 1 0 10 H6" stroke-linecap="round" stroke-linejoin="round"></path><path d="M28 12 h-9 a5 5 0 0 0 0 10 h9" stroke-linecap="round" stroke-linejoin="round"></path></symbol>
  <symbol id="i-ux" viewBox="0 0 34 34"><rect x="5" y="7" width="24" height="20" rx="2.5"></rect><line x1="5" y1="14" x2="29" y2="14"></line></symbol>
  <symbol id="i-docs" viewBox="0 0 34 34"><rect x="6" y="5" width="16" height="20" rx="2"></rect><path d="M12 29 h14 a2 2 0 0 0 2 -2 V11" stroke-linecap="round" stroke-linejoin="round"></path></symbol>
  <symbol id="i-search" viewBox="0 0 34 34"><circle cx="15" cy="15" r="8"></circle><line x1="21" y1="21" x2="28" y2="28" stroke-linecap="round"></line></symbol>
  <symbol id="i-now" viewBox="0 0 34 34"><circle cx="17" cy="17" r="11"></circle><polyline points="17,10 17,17 22,20" stroke-linecap="round" stroke-linejoin="round"></polyline></symbol>
  <symbol id="i-history" viewBox="0 0 34 34"><line x1="17" y1="5" x2="17" y2="29" stroke-linecap="round"></line><circle cx="17" cy="11" r="2.6"></circle><circle cx="17" cy="22" r="2.6"></circle></symbol>
  <symbol id="i-map" viewBox="0 0 34 34"><rect x="5" y="6" width="10" height="10" rx="1.5"></rect><rect x="19" y="6" width="10" height="10" rx="1.5"></rect><rect x="12" y="20" width="10" height="8" rx="1.5"></rect></symbol>
  <symbol id="i-mri" viewBox="0 0 34 34"><circle cx="17" cy="17" r="12"></circle><ellipse cx="17" cy="17" rx="12" ry="5"></ellipse><circle cx="17" cy="17" r="2.6"></circle></symbol>
  <symbol id="i-bolt" viewBox="0 0 34 34"><polygon points="19,4 9,19 16,19 14,30 25,14 18,14" stroke-linejoin="round"></polygon></symbol>
  <symbol id="i-copy" viewBox="0 0 34 34"><rect x="12" y="12" width="15" height="15" rx="3"></rect><path d="M22 7 H10 a3 3 0 0 0 -3 3 V22" stroke-linecap="round"></path></symbol>
  <symbol id="i-voice" viewBox="0 0 34 34"><polygon points="6,13 12,13 19,7 19,27 12,21 6,21" stroke-linejoin="round"></polygon><path d="M23 12 a7 7 0 0 1 0 10" stroke-linecap="round"></path></symbol>
  <symbol id="i-stop" viewBox="0 0 34 34"><rect x="10" y="10" width="14" height="14" rx="2"></rect></symbol>
  <symbol id="i-dismiss" viewBox="0 0 34 34"><line x1="10" y1="10" x2="24" y2="24" stroke-linecap="round"></line><line x1="24" y1="10" x2="10" y2="24" stroke-linecap="round"></line></symbol>
  <symbol id="i-undo" viewBox="0 0 34 34"><polyline points="13,8 6,15 13,22" stroke-linejoin="round" stroke-linecap="round"></polyline><path d="M6 15 h15 a7 7 0 0 1 7 7 v4" stroke-linecap="round"></path></symbol>
  <symbol id="i-sun" viewBox="0 0 34 34"><circle cx="17" cy="17" r="6"></circle><line x1="17" y1="4" x2="17" y2="8" stroke-linecap="round"></line><line x1="17" y1="26" x2="17" y2="30" stroke-linecap="round"></line><line x1="4" y1="17" x2="8" y2="17" stroke-linecap="round"></line><line x1="26" y1="17" x2="30" y2="17" stroke-linecap="round"></line></symbol>
  <symbol id="i-moon" viewBox="0 0 34 34"><path d="M27 20 A11 11 0 1 1 14 7 a9 9 0 0 0 13 13 Z" stroke-linejoin="round"></path></symbol>
</svg>